<?xml version="1.0" encoding="UTF-8"?>
<svg id="Layer_1" data-name="Layer 1" xmlns="http://www.w3.org/2000/svg" xmlns:xlink="http://www.w3.org/1999/xlink" viewBox="0 0 108 108">
  <defs>
    <style>
      .cls-1 {
        fill: url(#linear-gradient);
      }

      .cls-1, .cls-2, .cls-3, .cls-4, .cls-5, .cls-6, .cls-7 {
        stroke-width: 0px;
      }

      .cls-2 {
        fill: url(#linear-gradient-6);
      }

      .cls-3 {
        fill: url(#linear-gradient-5);
      }

      .cls-4 {
        fill: url(#linear-gradient-2);
      }

      .cls-5 {
        fill: url(#linear-gradient-7);
      }

      .cls-6 {
        fill: url(#linear-gradient-3);
      }

      .cls-7 {
        fill: url(#linear-gradient-4);
      }
    </style>
    <linearGradient id="linear-gradient" x1="3.95" y1="48.8" x2="50.76" y2="48.8" gradientUnits="userSpaceOnUse">
      <stop offset="0" stop-color="#b67837"/>
      <stop offset=".19" stop-color="#d19f4d"/>
      <stop offset=".44" stop-color="#f2ce69"/>
      <stop offset=".57" stop-color="#ffe174"/>
      <stop offset=".64" stop-color="#f8d76e"/>
      <stop offset=".76" stop-color="#e5bc5f"/>
      <stop offset=".92" stop-color="#c89246"/>
      <stop offset="1" stop-color="#b67837"/>
    </linearGradient>
    <linearGradient id="linear-gradient-2" x1="54.94" y1="66.64" x2="104.71" y2="66.64" xlink:href="#linear-gradient"/>
    <linearGradient id="linear-gradient-3" x1="19.68" y1="43.22" x2="103.49" y2="43.22" xlink:href="#linear-gradient"/>
    <linearGradient id="linear-gradient-4" x1="3.29" y1="76.18" x2="81.51" y2="76.18" xlink:href="#linear-gradient"/>
    <linearGradient id="linear-gradient-5" x1="47.41" y1="47.53" x2="74.24" y2="47.53" xlink:href="#linear-gradient"/>
    <linearGradient id="linear-gradient-6" x1="43.63" y1="55.67" x2="59.26" y2="55.67" xlink:href="#linear-gradient"/>
    <linearGradient id="linear-gradient-7" x1="11.23" y1="40.61" x2="17.87" y2="40.61" xlink:href="#linear-gradient"/>
  </defs>
  <path class="cls-1" d="m36.24,57.07c.33-.88.66-1.69.95-2.51,1.66-4.7,3.3-9.4,4.95-14.1.03-.09.04-.22,0-.31-.99-2.45-1.97-4.91-2.98-7.35-.52-1.25-1.48-2.16-2.53-2.96-.66-.5-1.35-.95-2.03-1.42h16.16c-.35.12-.67.22-.98.33-.93.33-1.86.68-2.69,1.22-.27.18-.53.38-.76.6-.61.57-.58,1.27-.3,1.98.51,1.3,1.02,2.6,1.53,3.89.9,2.29,1.8,4.57,2.7,6.86.02.05.04.11.06.19-2.08.88-3.92,2.07-5.29,3.96-.64-1.66-1.27-3.28-1.91-4.96-3.05,8.93-6.07,17.8-9.12,26.71-.07-.18-.12-.3-.17-.43-1.68-4.35-3.35-8.7-5.04-13.04-2.4-6.18-4.8-12.35-7.21-18.52-.63-1.62-1.31-3.22-2.2-4.71-.28-.47-.61-.93-.97-1.34-.82-.92-1.87-1.28-3.1-1.19-2.91.21-5.08,1.65-6.7,4.01-.76,1.11-1.14,2.39-1.36,3.71-.21,1.29-.27,2.59-.16,3.9.17,1.96.72,3.82,1.63,5.57.57,1.09,1.2,2.13,2.16,2.92,1.84,1.53,3.92,2.03,6.17,1.14,1.59-.63,2.79-1.76,3.41-3.4.4-1.05.33-2.11-.2-3.11-.02-.04-.03-.07-.08-.18.62.47,1.01,1.01,1.17,1.69.3,1.26.02,2.43-.69,3.48-1.3,1.9-3.13,2.89-5.41,3.13-2.51.27-4.72-.5-6.79-1.82-1.37-.87-2.55-1.91-3.32-3.37-.6-1.15-.95-2.37-1.09-3.65-.24-2.16-.12-4.3.44-6.41.85-3.17,2.79-5.48,5.59-7.12,1.86-1.09,3.87-1.75,6.02-1.95.61-.06,1.22-.1,1.84-.1,4.44,0,8.89,0,13.33,0h.28c-1.01.24-2.1.5-3.18.77-.61.15-1.19.37-1.68.78-.55.45-.74,1.22-.48,1.88,3.25,8.23,6.51,16.45,9.76,24.68.07.17.14.34.23.58Z"/>
  <path class="cls-4" d="m82.48,71.95v-.25c0-7.53,0-15.07,0-22.6,0-1.48-.45-2.78-1.67-3.7-.68-.52-1.42-.97-2.15-1.41-.41-.25-.87-.42-1.35-.65h13.24s0,.02,0,.03c-.32.08-.65.16-.97.24-1.11.3-2.21.65-3.2,1.24-1.6.96-2.39,2.4-2.4,4.24-.02,8.57,0,17.13,0,25.7,0,.1.01.21.05.3,1.22,2.73,2.51,5.42,4.13,7.95.73,1.13,1.51,2.21,2.5,3.13,1.47,1.36,3.21,2.16,5.17,2.5.91.16,1.82.25,2.75.16.98-.09,1.88-.45,2.76-.86,1.18-.55,2.26-1.26,3.26-2.09.03-.02.05-.04.12-.03-.15.2-.3.4-.45.59-.69.87-1.48,1.62-2.37,2.29-1.13.84-2.43,1.2-3.8,1.36-1.23.15-2.47.17-3.7.05-2.36-.22-4.55-.97-6.54-2.27-2.04-1.33-3.65-3.08-5.04-5.06-2.54-3.62-4.76-7.43-6.77-11.36-1.73-3.39-3.36-6.83-5.03-10.24-1.64-3.36-3.32-6.7-5.34-9.85-.81-1.26-1.66-2.48-2.72-3.54-.06-.06-.12-.12-.22-.21,0,.12-.02.19-.02.27,0,8.96,0,17.92,0,26.87,0,1.33.51,2.43,1.5,3.32,1.01.91,2.17,1.59,3.4,2.14.09.04.18.08.35.16h-13.02c.79-.24,1.65-.47,2.48-.76.83-.28,1.63-.66,2.29-1.26.86-.78,1.3-1.78,1.43-2.92.05-.43.06-.87.06-1.3,0-8.24,0-16.48,0-24.72,0-.2.04-.41.1-.6.6-1.83,1.21-3.66,1.82-5.5.02-.06.05-.13.07-.21.84.11,1.64.3,2.43.58,1.08.39,1.92,1.08,2.59,1.99,1.47,1.99,2.96,3.96,4.41,5.96.37.51.6,1.12.87,1.7,1.83,3.81,3.65,7.63,5.47,11.45,1.11,2.33,2.23,4.67,3.35,7,.03.07.07.13.1.19.02,0,.04-.01.05-.02Z"/>
  <path class="cls-6" d="m80.14,24.01c-.3-.28-.61-.56-.91-.84-.08-.08-.16-.19-.2-.3-.52-1.36-1.64-2.16-2.76-2.96-4.5-3.22-9.43-5.45-14.83-6.65-2.2-.49-4.42-.79-6.68-.9-1.97-.1-3.94-.07-5.9.12-4.82.47-9.41,1.75-13.76,3.87-4.26,2.07-8.04,4.81-11.33,8.2-.81.84-1.56,1.74-2.33,2.61-.11.12-.2.18-.37.17-.44-.01-.89,0-1.39,0,.16-.21.29-.38.42-.55,3.73-4.66,8.23-8.37,13.53-11.12,3.54-1.84,7.28-3.13,11.2-3.88,1.64-.32,3.29-.56,4.96-.63,1.46-.06,2.93-.13,4.4-.08,5.74.2,11.21,1.53,16.4,4.01.05.02.1.04.14.07.68.47,1.48.51,2.26.66,1.16.21,2.12.75,2.76,1.76.42.68,1,1.16,1.64,1.61.45.31.86.67,1.3.99.2.14.43.26.67.35.4.16.81.29,1.26.44-.44-.49-.86-.94-1.27-1.4-.76-.86-1.52-1.73-2.28-2.59-.04-.05-.09-.11-.14-.15-1.35-.94-2.19-2.29-2.89-3.74-.43-.9-.86-1.8-1.34-2.67-.27-.48-.64-.9-.95-1.32.03.02.08.05.14.09.64.42,1.29.83,1.92,1.27.33.23.64.48.95.74.8.68,1.1,1.62,1.27,2.61.07.41.16.82.22,1.23.14.94.63,1.65,1.29,2.32,1.68,1.72,3.31,3.49,4.96,5.23.05.05.11.1.17.16-.08-.82-.3-1.54-1.01-2.02-.28-.19-.53-.42-.8-.63-.64-.49-1.06-1.11-1.16-1.91-.09-.72-.16-1.45-.22-2.18.39,1.1,1.16,1.96,1.83,2.88.61.83,1.07,1.73,1.26,2.76.1.53.33,1.04.52,1.54.05.13.17.23.26.34,1.94,2.19,3.68,4.52,5.08,7.09.32.59.62,1.19.96,1.86-.06-.33-.13-.59-.15-.85-.05-.63-.08-1.26-.11-1.89-.04-1-.36-1.92-.8-2.8-.15-.31-.49-.53-.78-.76-.31-.25-.66-.46-1-.67-.79-.49-1.26-1.2-1.44-2.11-.13-.68-.26-1.37-.37-2.06.52,1.16,1.45,2.01,2.26,2.94.7.81,1.23,1.7,1.51,2.75.14.53.43,1.01.66,1.55.02-.51.04-1,.07-1.49.12-2.01-.63-3.73-1.72-5.35-.29-.43-.73-.69-1.17-.93-.48-.26-.96-.51-1.46-.74-1.2-.55-1.96-1.47-2.35-2.71-.28-.89-.55-1.78-.81-2.61.32.41.64.91,1.05,1.32.75.74,1.55,1.44,2.33,2.15.92.83,1.75,1.74,2.27,2.87.29.63.63,1.22.98,1.81.85,1.4,1.16,2.93,1.07,4.55-.03.51,0,1.03,0,1.6.31-.57.66-1.11.89-1.69.11-.29.07-.68-.01-.99-.14-.53-.34-1.05-.54-1.56-.32-.82-.3-1.63.07-2.43.31-.68.63-1.35.96-2.02-.24,1.01-.13,2.02,0,3.02.14,1.12.2,2.24-.13,3.34-.24.81-.48,1.61-.99,2.3-.44.6-.33,1.29-.26,1.95.15,1.28.62,2.47,1.01,3.68.41,1.25.91,2.47,1.36,3.71.01.03.03.05.03.05.35-.62.73-1.24,1.03-1.88.18-.39.31-.83.36-1.26.07-.57.07-1.15.06-1.73,0-.58-.27-1.04-.71-1.42-.34-.29-.67-.59-1-.88-.46-.41-.69-.93-.75-1.53-.06-.62-.08-1.24-.12-1.86.03,0,.05,0,.05,0,.28.88.83,1.61,1.36,2.36.5.72.89,1.48,1.08,2.35.2.89.36,1.78.23,2.7-.02.14-.03.29-.05.47.13-.14.24-.26.35-.37.29-.29.63-.48,1.04-.55.46-.08.84-.34,1.17-.64.55-.5,1.09-1.01,1.62-1.52.82-.8,1.82-1.15,2.95-1.14.99,0,1.98.06,2.97.1-1.62.31-2.97,1.22-4.38,2.01-1.15.65-2.36,1.13-3.69,1.27-.08,0-.17.03-.25.02-.6-.08-1.07.21-1.38.66-.69,1.02-1.44,2.01-1.7,3.25-.02.11-.02.24.01.35.31,1.07.62,2.14.93,3.21.17.58.37,1.15.47,1.74.42,2.44.78,4.89.83,7.38.05,2.03-.04,4.05-.27,6.07-.68,5.85-2.53,11.31-5.55,16.36-.67,1.13-1.44,2.19-2.16,3.29-.03.04-.06.08-.12.15-.2-.43-.4-.83-.57-1.24-.02-.05.03-.16.08-.22,1.05-1.5,2-3.05,2.84-4.67,1.64-3.17,2.84-6.49,3.6-9.98.5-2.31.79-4.65.88-7.01.13-3.37-.16-6.7-.86-10-.08-.36-.21-.71-.2-1.09,0-.19-.13-.38-.19-.57-.22-.73-.46-1.46-.64-2.2-.12-.51-.45-.78-.91-.9-.47-.12-.95-.18-1.43-.27-.78-.14-1.42.17-1.99.65-.47.38-.93.77-1.38,1.18-.89.81-1.92,1.22-3.13,1.14-1.03-.07-2.05-.17-3.08-.27,1.26-.16,2.38-.67,3.49-1.24,1.14-.58,2.28-1.16,3.54-1.42.64-.13,1.27-.21,1.93-.15.54.05,1.09.04,1.63.08.17.01.34.07.54.05-.16-.13-.33-.26-.49-.39-.61-.48-1.22-.95-1.69-1.59-.14-.19-.36-.31-.53-.48-.46-.48-.76-1.06-1.04-1.66-.29-.6-.62-1.19-.9-1.72.47.34,1.09.63,1.55,1.14.31.35.43.8.47,1.25.08.81.4,1.46,1.05,1.96.65.49,1.29,1,1.97,1.48-.25-.63-.48-1.27-.74-1.89-.65-1.58-1.4-3.1-2.24-4.59-.11-.19-.24-.28-.44-.34-.96-.26-1.95-.32-2.94-.32-.1,0-.21.01-.31,0-.93-.14-1.63.3-2.24.93-.42.42-.84.84-1.25,1.28-.78.82-1.75,1.24-2.87,1.27-1.05.03-2.1,0-3.16,0,1.35-.28,2.52-.97,3.66-1.69,1.13-.71,2.28-1.39,3.6-1.66.74-.15,1.5-.2,2.25-.25.62-.04,1.24,0,1.94,0-.11-.07-.16-.1-.21-.13-1.06-.53-1.9-1.28-2.49-2.32-.03-.06-.06-.13-.11-.17-.56-.51-.83-1.17-1.06-1.86-.16-.47-.37-.93-.58-1.44.4.38.79.71,1.14,1.09.26.27.31.65.29,1.01-.03.72.27,1.27.73,1.79.81.9,1.75,1.61,2.88,2.08.25.1.52.14.84.22-.08-.13-.13-.21-.17-.3-1.22-2.04-2.62-3.95-4.19-5.73-.06-.07-.16-.12-.25-.14-.83-.14-1.67-.22-2.49-.41-.72-.17-1.45-.39-2.13-.7-.69-.31-1.38-.35-2.09-.25-.68.09-1.37.19-2.05.29-.95.13-1.81-.14-2.58-.67-.63-.43-1.23-.91-1.85-1.37-.24-.18-.49-.36-.66-.49.55.15,1.17.36,1.81.48.81.15,1.64.23,2.46.3,1.5.14,2.97.4,4.26,1.2,1.03.64,2.15.92,3.31,1.1.44.07.88.11,1.32.15-.76-.44-1.49-.92-2.01-1.64.3.22.59.46.9.66.48.31.97.61,1.46.91.02-.03.05-.06.07-.09l-2.86-2.85s-.04.03-.06.05c.08.45.18.9.47,1.29Zm-.61-3.26s-.02.05-.03.07c.02.02.03.04.05.06,2.01,1.69,3.83,3.56,5.5,5.59.16.2.39.34.58.5.01-.09-.02-.13-.05-.18-1.27-1.73-2.69-3.35-4.13-4.94-.13-.14-.25-.32-.42-.4-.49-.25-.99-.47-1.49-.7Zm6.23,6.6c.61.86,1.22,1.71,1.83,2.57-.55-.9-.97-1.89-1.83-2.57Z"/>
  <path class="cls-7" d="m23.62,79.48c.56.37.85.93,1.12,1.52.2.43.38.87.61,1.29.22.4.54.62,1.04.64.87.04,1.72.24,2.53.58.66.28,1.32.28,2,.15.7-.14,1.4-.3,2.1-.45.85-.18,1.67-.07,2.43.35.65.36,1.26.77,1.89,1.16.37.23.74.48,1.06.69-.46-.11-.97-.28-1.49-.34-.9-.1-1.8-.14-2.7-.17-1.46-.05-2.9-.16-4.24-.78-.65-.3-1.28-.63-1.99-.76-.57-.1-1.15-.19-1.74-.22,7.94,6.77,17.09,10.19,27.54,9.92,10.44-.28,19.4-4.2,27.02-11.33.23.34.46.68.71,1.05-.48.44-.96.89-1.46,1.32-2.69,2.35-5.63,4.32-8.83,5.92-3.6,1.79-7.37,3.04-11.33,3.72-2.14.37-4.3.57-6.48.61-6.56.11-12.8-1.25-18.71-4.08-1.59-.76-3.12-1.64-4.61-2.58-.38-.24-.82-.41-1.23-.62-.43-.21-.84-.45-1.04-.93-.03-.07-.11-.12-.18-.18-1.09-.92-2.18-1.83-3.27-2.74-.14-.12-.31-.23-.48-.26-.88-.14-1.72-.4-2.48-.89.37.42.73.87,1.13,1.27,1.2,1.23,2.4,2.47,3.64,3.66.3.28.74.45,1.15.57.95.28,1.92.51,2.88.75,1.34.33,2.51.98,3.61,1.8.35.26.69.52,1.04.78.89.66,1.81,1.27,2.88,1.64-.38-.03-.76-.06-1.14-.1-.74-.08-1.49-.14-2.23-.25-.93-.14-1.68-.62-2.28-1.34-.49-.59-.98-1.18-1.48-1.76-.45-.51-1-.81-1.69-.92-.67-.1-1.32-.3-2-.46.29.28.58.55.86.83.99.98,1.97,1.96,2.97,2.93.22.21.51.34.75.53,1.03.81,1.78,1.84,2.43,2.97.52.91,1.03,1.82,1.6,2.7.3.46.7.85,1.05,1.26-.1-.06-.22-.14-.35-.21-.66-.37-1.33-.72-1.98-1.12-.38-.23-.75-.51-1.09-.8-.72-.61-.98-1.47-1.21-2.34-.18-.66-.34-1.32-.58-1.95-.13-.34-.37-.68-.64-.93-1.97-1.84-3.96-3.66-5.94-5.48-.02-.02-.05-.04-.09-.07.15.8.39,1.53,1.15,1.97.29.17.56.39.85.57.83.52,1.25,1.3,1.4,2.25.1.6.19,1.19.3,1.86-.49-1.22-1.39-2.05-2.16-2.98-.62-.76-1.1-1.59-1.34-2.55-.13-.52-.41-1.01-.62-1.51-.03-.07-.1-.14-.16-.19-1.73-1.68-3.35-3.46-4.73-5.43-.66-.94-1.25-1.93-1.87-2.9-.05-.07-.08-.15-.15-.21.08.35.18.69.23,1.04.07.48.14.96.17,1.45.04.84.41,1.57.7,2.33.22.57.62.97,1.14,1.26.29.16.57.34.87.49.99.48,1.57,1.28,1.82,2.33.15.61.3,1.22.45,1.83-.64-1.25-1.76-2.06-2.69-3.05-.65-.7-1.15-1.49-1.48-2.4-.19-.52-.5-.99-.75-1.49,0,.35,0,.7,0,1.05.03,1.17.15,2.32.7,3.37.41.77.87,1.52,1.39,2.23.24.33.64.56,1.01.76.55.29,1.12.53,1.7.75,1.26.47,2.1,1.35,2.58,2.6.34.88.68,1.75,1.05,2.7-.98-1.53-2.45-2.44-3.78-3.49-.98-.77-1.86-1.64-2.44-2.75-.27-.51-.58-.98-.91-1.44-.89-1.24-1.43-2.61-1.47-4.15-.02-.69,0-1.37-.05-2.07-.35.61-.8,1.17-.9,1.87-.04.28.03.6.13.87.14.42.32.83.52,1.22.55,1.03.54,2.06.09,3.12-.22.52-.42,1.05-.64,1.58,0-.43.04-.86,0-1.28-.1-.84-.26-1.68-.39-2.52-.15-1.01-.07-1.99.16-2.99.16-.72.47-1.36.79-2,.22-.43.14-.86.11-1.3-.06-.85-.35-1.64-.68-2.42-.6-1.45-1.22-2.88-1.82-4.32-.17-.41-.31-.84-.47-1.27-.13.36-.26.72-.4,1.08-.09.22-.17.45-.3.65-.27.44-.47.92-.49,1.44-.02.7,0,1.4.04,2.09.04.59.39,1.04.87,1.39.22.16.43.33.66.49.71.48,1.13,1.14,1.23,2,.06.53.13,1.06.18,1.6-.49-1.24-1.54-2.09-2.2-3.2-.31-.52-.53-1.06-.65-1.65-.06-.28-.21-.54-.25-.82-.07-.63-.1-1.27-.14-1.91.02,0,0,0-.01,0-.35.5-.82.81-1.41.98-.59.17-.99.65-1.39,1.09-.46.49-.9,1-1.38,1.48-.64.65-1.44.96-2.33,1.03-.81.06-1.63.07-2.45.11-.26.01-.52.03-.78.03,1.39-.36,2.55-1.16,3.71-1.95,1.13-.78,2.31-1.45,3.65-1.78.3-.07.62-.13.93-.15.43-.03.74-.25.99-.56.21-.25.38-.54.54-.83.24-.44.45-.9.68-1.34.31-.6.43-1.24.45-1.9,0-.22-.09-.45-.15-.67-.35-1.35-.7-2.7-1.06-4.05-.25-.94-.54-1.86-.78-2.8-.5-1.98-.85-4-1.01-6.04-.08-1.02-.13-2.04-.19-3.06,0-.02.01-.05.03-.08.4.11.81.21,1.24.32.01.2.03.41.04.62.07,2.09.33,4.16.73,6.21.63,3.15,1.62,6.18,2.97,9.1.09.19.2.27.4.28.31.01.63.03.94.06.74.08,1.33-.21,1.85-.69.45-.42.9-.83,1.32-1.29.94-1.02,2.1-1.48,3.47-1.43.75.02,1.5.04,2.25.05.19,0,.37,0,.57,0-1.58.29-2.89,1.14-4.22,1.94-1.13.67-2.3,1.24-3.61,1.42-.81.11-1.63.1-2.45.14-.08,0-.17,0-.35,0,.18.21.28.39.44.51.53.4,1.07.78,1.51,1.29.21.25.55.39.75.65.37.47.68.99,1.01,1.5.35.53.68,1.07,1.02,1.61-.54-.35-1.12-.68-1.64-1.1-.24-.2-.36-.56-.51-.86-.08-.17-.12-.37-.15-.57-.11-.66-.42-1.18-.97-1.56-.32-.22-.63-.46-.99-.66.04.09.08.18.12.26.99,1.91,2.13,3.73,3.41,5.46.1.13.19.19.36.18.9-.04,1.81-.05,2.71-.12.27-.02.57-.18.77-.36.51-.48.98-1.01,1.46-1.53.19-.21.37-.42.56-.63.72-.84,1.66-1.23,2.73-1.33,1.01-.09,2.02-.14,3.03-.2-1.61.45-2.87,1.49-4.2,2.42-1.06.74-2.19,1.37-3.47,1.61-.99.18-2.01.23-3.02.34-.14.01-.29,0-.42,0,.47.27.97.51,1.42.82.61.42,1.12.94,1.47,1.6-.09-.09-.19-.17-.27-.26-.66-.73-1.43-1.33-2.32-1.76-.07-.03-.15-.06-.22-.09.96,1.31,2,2.51,3.15,3.63-.05-.53-.06-1.06-.35-1.52Zm-6.23-3.31s.04.09.06.13c.91,1.63,1.91,3.21,3.09,4.66.83,1.02,1.95,1.56,3.27,1.74-.05-.06-.07-.09-.1-.12-1.8-1.75-3.42-3.63-4.89-5.67-.05-.07-.14-.13-.22-.15-.45-.1-.85-.29-1.21-.6Zm-2.84-6.63c.02.08.04.17.07.25.53,1.35,1.07,2.7,1.59,4.06.31.81.84,1.45,1.42,2.07.23.25.5.45.89.57-1.55-2.23-2.85-4.53-3.97-6.94Z"/>
  <path class="cls-3" d="m74.24,28.41c-.65.18-1.33.35-2,.57-1.87.62-3.49,1.64-4.91,3-1.04,1-2.03,2.04-2.62,3.37-.37.84-.63,1.74-.92,2.62-1.66,4.99-3.32,9.97-4.98,14.96-1.49,4.49-2.99,8.99-4.49,13.48-.02.06-.05.13-.08.23-.46-.29-.91-.56-1.34-.86-1.14-.78-1.13-.78-1.63-2.07-1.26-3.27-2.51-6.54-3.78-9.81-.17-.43-.07-.82-.01-1.23.21-1.58.71-3.06,1.61-4.39.59-.87,1.33-1.57,2.31-2.06,1.42,3.6,2.84,7.19,4.28,10.84.14-.41.26-.76.37-1.1,1.76-5.36,3.52-10.71,5.26-16.07.34-1.06.67-2.13.87-3.22.42-2.34-.23-4.31-2.19-5.77-1.45-1.08-3.06-1.83-4.77-2.39-.06-.02-.11-.04-.17-.06,0,0,0-.01-.02-.03h19.21Z"/>
  <path class="cls-2" d="m59.26,42.91c-.19.57-.36,1.11-.54,1.67-1.13-.35-2.28-.36-3.43-.31-1.55.06-3.06.35-4.45,1.08-1.73.91-2.81,2.39-3.56,4.14-.58,1.35-.86,2.78-.93,4.24-.1,1.95.05,3.88.53,5.78.59,2.32,1.89,4.18,3.66,5.75,1.39,1.23,2.94,2.2,4.6,3.02.07.04.15.07.21.17-.52-.02-1.05-.03-1.57-.08-1.29-.12-2.56-.38-3.76-.88-1.94-.8-3.39-2.16-4.47-3.93-1.03-1.68-1.62-3.52-1.81-5.48-.23-2.34-.08-4.65.6-6.9.97-3.23,3.13-5.36,6.19-6.65,1.63-.69,3.32-1.13,5.07-1.33,1.17-.14,2.34-.2,3.51-.3.04,0,.08,0,.16.01Z"/>
  <path class="cls-5" d="m16.99,31.29c.28.25.52.48.78.71.14.13.13.24.03.4-1.03,1.76-1.92,3.58-2.67,5.48-1.17,2.97-2,6.04-2.42,9.21-.12.92-.22,1.84-.33,2.85-.39-.32-.75-.62-1.1-.93-.05-.04-.04-.16-.03-.24.16-1.21.3-2.42.51-3.61.62-3.55,1.73-6.95,3.28-10.19.57-1.18,1.22-2.32,1.84-3.47.02-.04.06-.08.12-.18Z"/>
</svg>